<?xml version="1.0" encoding="UTF-8" standalone="no"?>
<!DOCTYPE svg PUBLIC "-//W3C//DTD SVG 20010904//EN"
              "http://www.w3.org/TR/2001/REC-SVG-20010904/DTD/svg10.dtd">

<svg xmlns="http://www.w3.org/2000/svg"
     width="76.5453mm" height="77.7307mm"
     viewBox="0 0 452 459">
  <path id="Auswahl"
        fill="none" stroke="black" stroke-width="1"
        d="M 236.00,42.00
           C 240.35,49.55 233.38,53.64 237.93,59.57
             239.95,62.20 248.57,63.88 252.00,64.86
             268.53,69.56 261.98,65.73 273.00,67.30
             273.00,67.30 290.00,70.69 290.00,70.69
             292.81,70.44 296.37,68.26 299.12,67.00
             299.08,68.69 299.65,73.53 299.12,74.77
             297.92,78.70 291.31,78.03 288.00,78.00
             277.36,77.88 270.09,72.40 265.28,77.31
             259.17,83.56 272.46,85.75 270.67,93.96
             269.69,98.44 265.22,99.03 263.60,103.09
             261.63,108.03 263.17,122.98 268.13,125.83
             270.82,127.37 276.81,127.03 280.00,127.00
             285.18,126.94 293.53,124.80 296.70,130.22
             299.23,134.19 297.34,145.38 296.70,150.00
             296.70,150.00 291.12,173.00 291.12,173.00
             291.12,173.00 291.12,184.00 291.12,184.00
             291.12,184.00 290.00,196.00 290.00,196.00
             289.99,200.19 289.71,209.17 287.57,212.70
             285.31,216.44 278.81,215.99 275.00,216.00
             257.72,216.03 251.13,215.14 241.75,199.00
             232.66,183.37 239.36,166.43 230.00,154.00
             226.59,159.38 221.61,163.94 219.60,170.00
             217.05,177.66 218.20,188.63 213.21,199.00
             206.09,213.81 191.55,215.17 177.00,215.00
             164.84,214.85 164.02,213.67 164.00,205.00
             164.00,205.00 164.00,179.00 164.00,179.00
             164.00,179.00 162.96,168.00 162.96,168.00
             162.96,168.00 162.96,158.00 162.96,158.00
             162.18,151.18 160.27,138.78 164.65,133.11
             168.71,127.85 175.13,129.01 181.00,129.00
             189.29,128.99 194.87,129.35 199.17,121.00
             200.70,118.01 201.70,114.36 201.91,111.00
             202.30,104.55 200.18,102.96 200.24,96.00
             199.95,93.36 199.98,90.60 200.24,88.00
             201.65,81.72 203.58,80.46 196.98,75.80
             192.03,72.30 179.86,72.64 173.00,71.58
             170.19,71.14 165.81,70.80 163.93,68.49
             162.35,66.53 162.20,63.40 162.00,61.00
             162.00,61.00 178.00,63.71 178.00,63.71
             178.00,63.71 188.00,64.30 188.00,64.30
             188.00,64.30 199.00,65.94 199.00,65.94
             199.00,65.94 212.00,62.23 212.00,62.23
             212.00,62.23 227.00,62.23 227.00,62.23
             227.00,62.23 230.00,43.00 230.00,43.00
             230.00,43.00 236.00,42.00 236.00,42.00 Z
           M 236.00,45.00
           C 236.00,45.00 232.00,45.00 232.00,45.00
             232.00,45.00 227.42,62.40 227.42,62.40
             227.42,62.40 213.00,64.30 213.00,64.30
             213.00,64.30 200.00,67.95 200.00,67.95
             200.00,67.95 164.00,64.00 164.00,64.00
             164.72,65.53 165.01,66.66 166.51,67.69
             171.94,71.42 186.65,69.97 193.00,71.28
             197.42,72.19 201.28,76.37 205.00,79.00
             205.00,79.00 209.00,76.00 209.00,76.00
             208.81,64.90 220.14,66.00 228.00,66.00
             232.70,66.00 237.35,65.80 242.00,66.61
             244.37,67.03 248.98,67.84 250.96,68.98
             256.91,72.44 253.57,75.58 260.00,80.00
             271.85,65.12 276.47,80.23 298.00,75.00
             298.00,75.00 297.00,71.00 297.00,71.00
             286.83,74.81 283.88,71.21 274.00,69.38
             267.30,68.28 263.81,70.00 260.00,69.38
             260.00,69.38 235.00,63.00 235.00,63.00
             235.00,63.00 234.46,53.00 234.46,53.00
             234.46,53.00 236.00,45.00 236.00,45.00 Z
           M 254.00,76.07
           C 253.63,74.34 253.54,72.91 252.26,71.59
             250.72,69.99 247.16,69.59 245.00,69.12
             237.76,67.52 230.38,67.99 223.00,68.00
             220.30,68.00 209.29,68.24 211.34,73.61
             212.26,76.03 215.71,74.27 219.74,77.38
             222.32,79.36 223.35,82.12 229.00,82.78
             236.26,83.63 240.64,78.01 245.00,76.07
             248.13,74.81 250.78,75.59 254.00,76.07 Z
           M 285.00,213.18
           C 285.00,213.18 287.91,195.00 287.91,195.00
             287.91,195.00 289.32,171.00 289.32,171.00
             289.32,171.00 291.85,162.00 291.85,162.00
             293.02,157.58 296.27,139.91 295.85,136.00
             295.12,129.19 290.57,129.03 285.00,129.00
             280.75,128.98 270.43,129.65 267.05,127.83
             260.94,124.52 260.96,114.08 261.00,108.00
             261.02,105.13 260.85,102.65 262.60,100.18
             264.30,97.79 267.54,96.39 268.29,93.82
             269.17,90.85 266.77,88.61 264.91,86.72
             260.88,82.63 258.12,78.48 252.00,78.05
             240.64,77.26 239.04,84.10 231.00,84.77
             221.73,85.56 219.70,77.81 213.99,77.33
             209.48,76.95 205.92,80.28 203.98,84.02
             199.11,93.50 204.34,101.71 203.98,111.00
             203.85,113.81 203.40,116.35 202.45,119.00
             201.74,120.99 200.64,123.27 199.36,124.96
             193.62,132.55 184.37,130.94 176.00,131.00
             173.24,131.02 170.54,130.85 168.21,132.60
             163.68,136.00 163.98,141.96 164.00,147.00
             164.00,147.00 166.00,179.00 166.00,179.00
             166.00,179.00 166.00,212.00 166.00,212.00
             173.78,212.00 191.57,213.02 198.00,210.27
             217.84,201.78 214.07,180.24 217.11,170.00
             218.71,164.60 227.06,154.33 231.00,150.00
             233.04,154.00 235.16,156.51 236.18,161.00
             236.18,161.00 238.83,180.00 238.83,180.00
             238.83,180.00 239.52,188.00 239.52,188.00
             241.96,199.43 250.42,212.28 263.00,213.18
             263.00,213.18 285.00,213.18 285.00,213.18 Z
           M 288.00,135.00
           C 288.00,135.00 281.74,167.00 281.74,167.00
             281.74,167.00 278.05,194.00 278.05,194.00
             277.74,196.76 277.35,203.37 275.40,205.26
             273.25,207.35 269.65,206.89 267.00,206.33
             258.89,204.64 253.54,200.73 250.21,193.00
             250.21,193.00 244.02,173.00 244.02,173.00
             244.02,173.00 241.53,161.00 241.53,161.00
             238.66,152.19 234.60,150.68 234.10,139.00
             233.79,131.72 237.72,126.85 237.99,119.00
             237.99,119.00 238.96,103.00 238.96,103.00
             238.80,99.14 237.55,94.78 238.23,91.00
             238.79,87.86 240.73,84.86 244.02,84.10
             248.38,83.09 253.47,88.06 254.31,92.00
             254.91,94.79 253.30,96.71 253.06,101.00
             252.81,105.47 254.28,122.20 256.24,126.00
             263.28,139.70 275.67,135.00 288.00,135.00 Z
           M 217.04,85.28
           C 220.03,84.99 226.86,86.19 228.99,88.56
             231.13,90.93 230.88,95.00 231.29,98.00
             232.21,104.86 234.00,110.82 232.63,118.00
             232.63,118.00 230.47,126.00 230.47,126.00
             229.55,130.88 230.16,136.22 228.12,140.91
             226.88,143.79 223.87,146.24 221.90,149.01
             217.83,154.72 214.69,160.54 212.00,167.00
             209.08,174.04 210.56,181.20 208.35,188.00
             204.68,199.32 191.88,204.31 181.00,203.98
             178.22,203.90 175.24,203.94 174.29,200.77
             174.29,200.77 175.00,178.00 175.00,178.00
             174.98,162.15 170.37,158.62 169.59,149.00
             169.39,147.48 169.43,146.51 169.59,145.00
             171.54,132.56 180.43,141.16 187.00,140.70
             189.76,140.50 199.60,135.96 201.99,134.30
             209.23,129.29 211.90,121.44 212.00,113.00
             212.10,103.58 207.48,91.30 217.04,85.28 Z
           M 286.00,137.00
           C 272.40,137.04 262.75,142.16 254.52,127.00
             252.01,122.38 250.85,106.58 251.02,101.00
             251.10,98.31 252.35,93.88 251.89,92.02
             251.10,88.85 247.47,85.81 244.11,86.84
             238.07,88.69 240.61,97.59 240.95,102.00
             240.95,102.00 240.95,111.00 240.95,111.00
             240.83,125.45 235.61,132.14 236.18,140.00
             236.99,151.21 240.37,151.64 243.24,160.00
             243.24,160.00 245.90,172.00 245.90,172.00
             245.90,172.00 249.85,185.00 249.85,185.00
             252.60,194.99 255.02,201.16 266.00,204.04
             267.93,204.34 270.81,205.07 272.71,204.04
             275.66,202.91 276.51,191.27 276.83,188.00
             276.83,188.00 282.60,152.00 282.60,152.00
             282.60,152.00 286.00,137.00 286.00,137.00 Z
           M 218.10,87.77
           C 209.91,92.25 214.09,104.89 214.00,113.00
             213.87,123.91 209.68,132.01 200.00,137.64
             197.40,139.15 189.86,142.48 187.00,142.70
             179.94,143.25 173.29,136.08 171.67,145.02
             170.72,150.29 173.88,157.81 175.25,163.00
             176.87,169.16 177.01,173.74 177.01,180.00
             176.99,184.22 174.90,197.72 177.01,200.32
             179.55,203.60 189.72,201.53 193.00,200.32
             194.97,199.46 197.25,198.29 198.99,197.09
             210.70,188.96 205.83,178.80 209.10,169.00
             210.99,163.36 215.95,153.93 219.36,149.01
             219.36,149.01 225.83,140.91 225.83,140.91
             227.05,138.58 227.27,132.99 227.75,130.00
             229.11,121.71 231.18,118.72 230.99,110.00
             230.88,105.17 230.14,103.44 229.44,99.00
             228.29,91.75 228.52,87.11 218.10,87.77 Z" />
</svg>
